<mxfile host="app.diagrams.net" modified="2022-01-19T08:43:43.915Z" agent="5.0 (Windows NT 10.0; Win64; x64) AppleWebKit/537.36 (KHTML, like Gecko) Chrome/96.0.4664.110 Whale/3.12.129.46 Safari/537.36" etag="CGOvdZvlEX9ssnEGkQw2" version="16.3.0" type="github">
  <diagram id="C5RBs43oDa-KdzZeNtuy" name="Page-1">
    <mxGraphModel dx="1329" dy="2233" grid="1" gridSize="10" guides="1" tooltips="1" connect="1" arrows="1" fold="1" page="1" pageScale="1" pageWidth="827" pageHeight="1169" math="0" shadow="0">
      <root>
        <mxCell id="WIyWlLk6GJQsqaUBKTNV-0" />
        <mxCell id="WIyWlLk6GJQsqaUBKTNV-1" parent="WIyWlLk6GJQsqaUBKTNV-0" />
        <mxCell id="bMZB9Vd6qo7QIXPBjNJl-21" value="" style="rounded=1;whiteSpace=wrap;html=1;fillColor=#d5e8d4;strokeColor=#82b366;" parent="WIyWlLk6GJQsqaUBKTNV-1" vertex="1">
          <mxGeometry x="1006.25" y="-60" width="450" height="70" as="geometry" />
        </mxCell>
        <mxCell id="bMZB9Vd6qo7QIXPBjNJl-19" value="" style="rounded=1;whiteSpace=wrap;html=1;fillColor=#dae8fc;strokeColor=#6c8ebf;" parent="WIyWlLk6GJQsqaUBKTNV-1" vertex="1">
          <mxGeometry x="1006.25" y="-150" width="450" height="80" as="geometry" />
        </mxCell>
        <mxCell id="2KLROPiv-7XGjGVSPrxI-18" style="edgeStyle=none;curved=1;rounded=0;sketch=1;hachureGap=4;orthogonalLoop=1;jettySize=auto;html=1;exitX=0.5;exitY=1;exitDx=0;exitDy=0;fontFamily=Architects Daughter;fontSource=https%3A%2F%2Ffonts.googleapis.com%2Fcss%3Ffamily%3DArchitects%2BDaughter;fontSize=11;endArrow=open;startSize=14;endSize=14;sourcePerimeterSpacing=8;targetPerimeterSpacing=8;" parent="WIyWlLk6GJQsqaUBKTNV-1" source="WIyWlLk6GJQsqaUBKTNV-3" target="2KLROPiv-7XGjGVSPrxI-17" edge="1">
          <mxGeometry relative="1" as="geometry" />
        </mxCell>
        <mxCell id="WIyWlLk6GJQsqaUBKTNV-3" value="비콘 신호가 감지시작" style="rounded=1;whiteSpace=wrap;html=1;fontSize=12;glass=0;strokeWidth=1;shadow=0;sketch=1;" parent="WIyWlLk6GJQsqaUBKTNV-1" vertex="1">
          <mxGeometry x="211.25" y="40" width="150" height="60" as="geometry" />
        </mxCell>
        <mxCell id="2KLROPiv-7XGjGVSPrxI-7" style="edgeStyle=none;curved=1;rounded=0;sketch=1;hachureGap=4;orthogonalLoop=1;jettySize=auto;html=1;exitX=0.5;exitY=1;exitDx=0;exitDy=0;fontFamily=Architects Daughter;fontSource=https%3A%2F%2Ffonts.googleapis.com%2Fcss%3Ffamily%3DArchitects%2BDaughter;fontSize=11;endArrow=open;startSize=14;endSize=14;sourcePerimeterSpacing=8;targetPerimeterSpacing=8;entryX=0.5;entryY=0;entryDx=0;entryDy=0;" parent="WIyWlLk6GJQsqaUBKTNV-1" source="WIyWlLk6GJQsqaUBKTNV-10" target="2KLROPiv-7XGjGVSPrxI-8" edge="1">
          <mxGeometry relative="1" as="geometry">
            <mxPoint x="286.25" y="532" as="targetPoint" />
          </mxGeometry>
        </mxCell>
        <mxCell id="2KLROPiv-7XGjGVSPrxI-31" style="edgeStyle=none;rounded=0;sketch=1;hachureGap=4;orthogonalLoop=1;jettySize=auto;html=1;exitX=1;exitY=0.5;exitDx=0;exitDy=0;fontFamily=Architects Daughter;fontSource=https%3A%2F%2Ffonts.googleapis.com%2Fcss%3Ffamily%3DArchitects%2BDaughter;fontSize=11;endArrow=open;startSize=14;endSize=14;sourcePerimeterSpacing=8;targetPerimeterSpacing=8;" parent="WIyWlLk6GJQsqaUBKTNV-1" source="WIyWlLk6GJQsqaUBKTNV-10" target="WIyWlLk6GJQsqaUBKTNV-11" edge="1">
          <mxGeometry relative="1" as="geometry" />
        </mxCell>
        <mxCell id="WIyWlLk6GJQsqaUBKTNV-10" value="배열 안의 값이 3개 이상인가?" style="rhombus;whiteSpace=wrap;html=1;shadow=0;fontFamily=Helvetica;fontSize=12;align=center;strokeWidth=1;spacing=6;spacingTop=-4;sketch=1;" parent="WIyWlLk6GJQsqaUBKTNV-1" vertex="1">
          <mxGeometry x="148.76" y="410" width="275" height="90" as="geometry" />
        </mxCell>
        <mxCell id="2KLROPiv-7XGjGVSPrxI-45" style="edgeStyle=none;curved=1;rounded=1;sketch=1;hachureGap=4;orthogonalLoop=1;jettySize=auto;html=1;exitX=1;exitY=0.5;exitDx=0;exitDy=0;fontFamily=Architects Daughter;fontSource=https%3A%2F%2Ffonts.googleapis.com%2Fcss%3Ffamily%3DArchitects%2BDaughter;fontSize=12;endArrow=open;startSize=14;endSize=14;sourcePerimeterSpacing=8;targetPerimeterSpacing=8;" parent="WIyWlLk6GJQsqaUBKTNV-1" source="WIyWlLk6GJQsqaUBKTNV-11" edge="1">
          <mxGeometry relative="1" as="geometry">
            <mxPoint x="642" y="454.9999999999998" as="targetPoint" />
          </mxGeometry>
        </mxCell>
        <mxCell id="2KLROPiv-7XGjGVSPrxI-47" style="edgeStyle=none;curved=1;rounded=1;sketch=1;hachureGap=4;orthogonalLoop=1;jettySize=auto;html=1;exitX=1;exitY=0.5;exitDx=0;exitDy=0;fontFamily=Architects Daughter;fontSource=https%3A%2F%2Ffonts.googleapis.com%2Fcss%3Ffamily%3DArchitects%2BDaughter;fontSize=12;endArrow=open;startSize=14;endSize=14;sourcePerimeterSpacing=8;targetPerimeterSpacing=8;" parent="WIyWlLk6GJQsqaUBKTNV-1" source="WIyWlLk6GJQsqaUBKTNV-11" edge="1">
          <mxGeometry relative="1" as="geometry">
            <mxPoint x="750" y="455" as="targetPoint" />
          </mxGeometry>
        </mxCell>
        <mxCell id="WIyWlLk6GJQsqaUBKTNV-11" value="배열 안에&lt;br&gt;수신 정보와 거리를 저장한다" style="rounded=1;whiteSpace=wrap;html=1;fontSize=12;glass=0;strokeWidth=1;shadow=0;" parent="WIyWlLk6GJQsqaUBKTNV-1" vertex="1">
          <mxGeometry x="500" y="435" width="200" height="40" as="geometry" />
        </mxCell>
        <mxCell id="2KLROPiv-7XGjGVSPrxI-5" style="edgeStyle=none;curved=1;rounded=0;sketch=1;hachureGap=4;orthogonalLoop=1;jettySize=auto;html=1;exitX=0.5;exitY=1;exitDx=0;exitDy=0;entryX=0.5;entryY=0;entryDx=0;entryDy=0;fontFamily=Architects Daughter;fontSource=https%3A%2F%2Ffonts.googleapis.com%2Fcss%3Ffamily%3DArchitects%2BDaughter;fontSize=11;endArrow=open;startSize=14;endSize=14;sourcePerimeterSpacing=8;targetPerimeterSpacing=8;" parent="WIyWlLk6GJQsqaUBKTNV-1" source="2KLROPiv-7XGjGVSPrxI-0" target="WIyWlLk6GJQsqaUBKTNV-10" edge="1">
          <mxGeometry relative="1" as="geometry" />
        </mxCell>
        <mxCell id="2KLROPiv-7XGjGVSPrxI-0" value="&lt;font style=&quot;font-size: 12px&quot;&gt;감지된 비콘신호의 TxPower 와 RSSI 로&lt;br&gt;수신기와의 거리를 구한다.&lt;/font&gt;" style="rounded=0;whiteSpace=wrap;html=1;sketch=1;hachureGap=4;fontFamily=Architects Daughter;fontSource=https%3A%2F%2Ffonts.googleapis.com%2Fcss%3Ffamily%3DArchitects%2BDaughter;fontSize=20;" parent="WIyWlLk6GJQsqaUBKTNV-1" vertex="1">
          <mxGeometry x="174.38" y="260" width="223.75" height="90" as="geometry" />
        </mxCell>
        <mxCell id="2KLROPiv-7XGjGVSPrxI-10" style="edgeStyle=none;curved=1;rounded=0;sketch=1;hachureGap=4;orthogonalLoop=1;jettySize=auto;html=1;fontFamily=Architects Daughter;fontSource=https%3A%2F%2Ffonts.googleapis.com%2Fcss%3Ffamily%3DArchitects%2BDaughter;fontSize=11;endArrow=open;startSize=14;endSize=14;sourcePerimeterSpacing=8;targetPerimeterSpacing=8;" parent="WIyWlLk6GJQsqaUBKTNV-1" source="2KLROPiv-7XGjGVSPrxI-8" target="2KLROPiv-7XGjGVSPrxI-11" edge="1">
          <mxGeometry relative="1" as="geometry">
            <mxPoint x="288.75" y="632" as="targetPoint" />
          </mxGeometry>
        </mxCell>
        <mxCell id="2KLROPiv-7XGjGVSPrxI-8" value="&lt;font style=&quot;font-size: 12px&quot;&gt;인덱스 값을 늘려가면서&lt;br&gt;배열 안 정보의 거리값과 비교한다&lt;/font&gt;" style="rounded=0;whiteSpace=wrap;html=1;sketch=1;hachureGap=4;fontFamily=Architects Daughter;fontSource=https%3A%2F%2Ffonts.googleapis.com%2Fcss%3Ffamily%3DArchitects%2BDaughter;fontSize=11;" parent="WIyWlLk6GJQsqaUBKTNV-1" vertex="1">
          <mxGeometry x="188.75" y="560" width="195" height="60" as="geometry" />
        </mxCell>
        <mxCell id="2KLROPiv-7XGjGVSPrxI-13" style="edgeStyle=none;curved=1;rounded=0;sketch=1;hachureGap=4;orthogonalLoop=1;jettySize=auto;html=1;exitX=0.5;exitY=1;exitDx=0;exitDy=0;fontFamily=Architects Daughter;fontSource=https%3A%2F%2Ffonts.googleapis.com%2Fcss%3Ffamily%3DArchitects%2BDaughter;fontSize=11;endArrow=open;startSize=14;endSize=14;sourcePerimeterSpacing=8;targetPerimeterSpacing=8;entryX=0.5;entryY=0;entryDx=0;entryDy=0;" parent="WIyWlLk6GJQsqaUBKTNV-1" source="2KLROPiv-7XGjGVSPrxI-11" target="2KLROPiv-7XGjGVSPrxI-14" edge="1">
          <mxGeometry relative="1" as="geometry">
            <mxPoint x="286.25" y="780" as="targetPoint" />
          </mxGeometry>
        </mxCell>
        <mxCell id="2KLROPiv-7XGjGVSPrxI-40" style="edgeStyle=none;rounded=0;sketch=1;hachureGap=4;orthogonalLoop=1;jettySize=auto;html=1;exitX=1;exitY=0.5;exitDx=0;exitDy=0;fontFamily=Architects Daughter;fontSource=https%3A%2F%2Ffonts.googleapis.com%2Fcss%3Ffamily%3DArchitects%2BDaughter;fontSize=11;endArrow=open;startSize=14;endSize=14;sourcePerimeterSpacing=8;targetPerimeterSpacing=8;endFill=0;" parent="WIyWlLk6GJQsqaUBKTNV-1" source="2KLROPiv-7XGjGVSPrxI-11" edge="1">
          <mxGeometry relative="1" as="geometry">
            <mxPoint x="750" y="715" as="targetPoint" />
          </mxGeometry>
        </mxCell>
        <mxCell id="2KLROPiv-7XGjGVSPrxI-11" value="&lt;font style=&quot;font-size: 14px&quot;&gt;자신보다 더 큰&lt;br&gt;거리값을 찾았는가?&lt;/font&gt;" style="rhombus;whiteSpace=wrap;html=1;shadow=0;fontFamily=Helvetica;fontSize=12;align=center;strokeWidth=1;spacing=6;spacingTop=-4;sketch=1;" parent="WIyWlLk6GJQsqaUBKTNV-1" vertex="1">
          <mxGeometry x="148.75" y="670" width="275" height="90" as="geometry" />
        </mxCell>
        <mxCell id="2KLROPiv-7XGjGVSPrxI-24" value="" style="edgeStyle=none;curved=1;rounded=0;sketch=1;hachureGap=4;orthogonalLoop=1;jettySize=auto;html=1;fontFamily=Architects Daughter;fontSource=https%3A%2F%2Ffonts.googleapis.com%2Fcss%3Ffamily%3DArchitects%2BDaughter;fontSize=11;endArrow=open;startSize=14;endSize=14;sourcePerimeterSpacing=8;targetPerimeterSpacing=8;entryX=0.5;entryY=0;entryDx=0;entryDy=0;" parent="WIyWlLk6GJQsqaUBKTNV-1" source="2KLROPiv-7XGjGVSPrxI-14" target="2KLROPiv-7XGjGVSPrxI-23" edge="1">
          <mxGeometry relative="1" as="geometry" />
        </mxCell>
        <mxCell id="2KLROPiv-7XGjGVSPrxI-14" value="&lt;font style=&quot;font-size: 14px&quot;&gt;새로 구한 정보를 찾아낸 거리값&lt;br&gt;배열 자리에 저장한다.&lt;/font&gt;" style="rounded=0;whiteSpace=wrap;html=1;sketch=1;hachureGap=4;fontFamily=Architects Daughter;fontSource=https%3A%2F%2Ffonts.googleapis.com%2Fcss%3Ffamily%3DArchitects%2BDaughter;fontSize=11;" parent="WIyWlLk6GJQsqaUBKTNV-1" vertex="1">
          <mxGeometry x="166.25" y="810" width="240" height="80" as="geometry" />
        </mxCell>
        <mxCell id="2KLROPiv-7XGjGVSPrxI-20" style="edgeStyle=none;curved=1;rounded=0;sketch=1;hachureGap=4;orthogonalLoop=1;jettySize=auto;html=1;exitX=0.5;exitY=1;exitDx=0;exitDy=0;entryX=0.5;entryY=0;entryDx=0;entryDy=0;fontFamily=Architects Daughter;fontSource=https%3A%2F%2Ffonts.googleapis.com%2Fcss%3Ffamily%3DArchitects%2BDaughter;fontSize=11;endArrow=open;startSize=14;endSize=14;sourcePerimeterSpacing=8;targetPerimeterSpacing=8;" parent="WIyWlLk6GJQsqaUBKTNV-1" source="2KLROPiv-7XGjGVSPrxI-17" target="2KLROPiv-7XGjGVSPrxI-0" edge="1">
          <mxGeometry relative="1" as="geometry" />
        </mxCell>
        <mxCell id="2KLROPiv-7XGjGVSPrxI-17" value="N 초 타이머 시작" style="rounded=1;whiteSpace=wrap;html=1;fontSize=12;glass=0;strokeWidth=1;shadow=0;sketch=1;hachureGap=4;fontFamily=Architects Daughter;fontSource=https%3A%2F%2Ffonts.googleapis.com%2Fcss%3Ffamily%3DArchitects%2BDaughter;" parent="WIyWlLk6GJQsqaUBKTNV-1" vertex="1">
          <mxGeometry x="211.26" y="140" width="150" height="60" as="geometry" />
        </mxCell>
        <mxCell id="2KLROPiv-7XGjGVSPrxI-28" style="edgeStyle=none;rounded=0;sketch=1;hachureGap=4;orthogonalLoop=1;jettySize=auto;html=1;fontFamily=Architects Daughter;fontSource=https%3A%2F%2Ffonts.googleapis.com%2Fcss%3Ffamily%3DArchitects%2BDaughter;fontSize=11;endArrow=open;startSize=14;endSize=14;sourcePerimeterSpacing=8;targetPerimeterSpacing=8;exitX=0;exitY=0.5;exitDx=0;exitDy=0;" parent="WIyWlLk6GJQsqaUBKTNV-1" source="2KLROPiv-7XGjGVSPrxI-41" edge="1">
          <mxGeometry relative="1" as="geometry">
            <mxPoint x="210" y="160" as="targetPoint" />
            <Array as="points">
              <mxPoint x="100" y="1100" />
              <mxPoint x="110" y="160" />
            </Array>
          </mxGeometry>
        </mxCell>
        <mxCell id="2KLROPiv-7XGjGVSPrxI-36" style="edgeStyle=none;rounded=0;sketch=1;hachureGap=4;orthogonalLoop=1;jettySize=auto;html=1;fontFamily=Architects Daughter;fontSource=https%3A%2F%2Ffonts.googleapis.com%2Fcss%3Ffamily%3DArchitects%2BDaughter;fontSize=11;endArrow=open;startSize=14;endSize=14;sourcePerimeterSpacing=8;targetPerimeterSpacing=8;entryX=1;entryY=0.5;entryDx=0;entryDy=0;" parent="WIyWlLk6GJQsqaUBKTNV-1" source="2KLROPiv-7XGjGVSPrxI-23" target="2KLROPiv-7XGjGVSPrxI-0" edge="1">
          <mxGeometry relative="1" as="geometry">
            <mxPoint x="750" y="280" as="targetPoint" />
            <Array as="points">
              <mxPoint x="750" y="970" />
              <mxPoint x="750" y="305" />
            </Array>
          </mxGeometry>
        </mxCell>
        <mxCell id="2KLROPiv-7XGjGVSPrxI-42" style="edgeStyle=none;curved=1;rounded=1;sketch=1;hachureGap=4;orthogonalLoop=1;jettySize=auto;html=1;exitX=0.5;exitY=1;exitDx=0;exitDy=0;entryX=0.5;entryY=0;entryDx=0;entryDy=0;fontFamily=Architects Daughter;fontSource=https%3A%2F%2Ffonts.googleapis.com%2Fcss%3Ffamily%3DArchitects%2BDaughter;fontSize=16;endArrow=open;startSize=14;endSize=14;sourcePerimeterSpacing=8;targetPerimeterSpacing=8;" parent="WIyWlLk6GJQsqaUBKTNV-1" source="2KLROPiv-7XGjGVSPrxI-23" target="2KLROPiv-7XGjGVSPrxI-41" edge="1">
          <mxGeometry relative="1" as="geometry" />
        </mxCell>
        <mxCell id="2KLROPiv-7XGjGVSPrxI-23" value="&lt;font style=&quot;font-size: 14px&quot;&gt;타이머 완료?&lt;/font&gt;" style="rhombus;whiteSpace=wrap;html=1;sketch=1;hachureGap=4;fontFamily=Architects Daughter;fontSource=https%3A%2F%2Ffonts.googleapis.com%2Fcss%3Ffamily%3DArchitects%2BDaughter;fontSize=11;" parent="WIyWlLk6GJQsqaUBKTNV-1" vertex="1">
          <mxGeometry x="194.37" y="940" width="183.75" height="80" as="geometry" />
        </mxCell>
        <mxCell id="2KLROPiv-7XGjGVSPrxI-32" value="Yes" style="text;strokeColor=none;fillColor=none;html=1;align=center;verticalAlign=middle;whiteSpace=wrap;rounded=0;sketch=1;hachureGap=4;fontFamily=Architects Daughter;fontSource=https%3A%2F%2Ffonts.googleapis.com%2Fcss%3Ffamily%3DArchitects%2BDaughter;fontSize=20;" parent="WIyWlLk6GJQsqaUBKTNV-1" vertex="1">
          <mxGeometry x="211.25" y="510" width="60" height="30" as="geometry" />
        </mxCell>
        <mxCell id="2KLROPiv-7XGjGVSPrxI-33" value="Yes" style="text;strokeColor=none;fillColor=none;html=1;align=center;verticalAlign=middle;whiteSpace=wrap;rounded=0;sketch=1;hachureGap=4;fontFamily=Architects Daughter;fontSource=https%3A%2F%2Ffonts.googleapis.com%2Fcss%3Ffamily%3DArchitects%2BDaughter;fontSize=20;" parent="WIyWlLk6GJQsqaUBKTNV-1" vertex="1">
          <mxGeometry x="290" y="760" width="60" height="30" as="geometry" />
        </mxCell>
        <mxCell id="2KLROPiv-7XGjGVSPrxI-34" value="Yes" style="text;strokeColor=none;fillColor=none;html=1;align=center;verticalAlign=middle;whiteSpace=wrap;rounded=0;sketch=1;hachureGap=4;fontFamily=Architects Daughter;fontSource=https%3A%2F%2Ffonts.googleapis.com%2Fcss%3Ffamily%3DArchitects%2BDaughter;fontSize=20;" parent="WIyWlLk6GJQsqaUBKTNV-1" vertex="1">
          <mxGeometry x="290" y="1010" width="60" height="30" as="geometry" />
        </mxCell>
        <mxCell id="2KLROPiv-7XGjGVSPrxI-37" value="No" style="text;strokeColor=none;fillColor=none;html=1;align=center;verticalAlign=middle;whiteSpace=wrap;rounded=0;sketch=1;hachureGap=4;fontFamily=Architects Daughter;fontSource=https%3A%2F%2Ffonts.googleapis.com%2Fcss%3Ffamily%3DArchitects%2BDaughter;fontSize=20;" parent="WIyWlLk6GJQsqaUBKTNV-1" vertex="1">
          <mxGeometry x="414" y="460" width="60" height="30" as="geometry" />
        </mxCell>
        <mxCell id="2KLROPiv-7XGjGVSPrxI-38" value="No" style="text;strokeColor=none;fillColor=none;html=1;align=center;verticalAlign=middle;whiteSpace=wrap;rounded=0;sketch=1;hachureGap=4;fontFamily=Architects Daughter;fontSource=https%3A%2F%2Ffonts.googleapis.com%2Fcss%3Ffamily%3DArchitects%2BDaughter;fontSize=20;" parent="WIyWlLk6GJQsqaUBKTNV-1" vertex="1">
          <mxGeometry x="540" y="680" width="60" height="30" as="geometry" />
        </mxCell>
        <mxCell id="2KLROPiv-7XGjGVSPrxI-41" value="&lt;font style=&quot;font-size: 14px&quot;&gt;배열을 초기화 한다&lt;/font&gt;" style="rounded=0;whiteSpace=wrap;html=1;sketch=1;hachureGap=4;fontFamily=Architects Daughter;fontSource=https%3A%2F%2Ffonts.googleapis.com%2Fcss%3Ffamily%3DArchitects%2BDaughter;fontSize=20;" parent="WIyWlLk6GJQsqaUBKTNV-1" vertex="1">
          <mxGeometry x="206.25" y="1060" width="160" height="80" as="geometry" />
        </mxCell>
        <mxCell id="EY-OaqHhZuePVEDNUorm-0" value="No" style="text;strokeColor=none;fillColor=none;html=1;align=center;verticalAlign=middle;whiteSpace=wrap;rounded=0;sketch=1;hachureGap=4;fontFamily=Architects Daughter;fontSource=https%3A%2F%2Ffonts.googleapis.com%2Fcss%3Ffamily%3DArchitects%2BDaughter;fontSize=20;" parent="WIyWlLk6GJQsqaUBKTNV-1" vertex="1">
          <mxGeometry x="540" y="930" width="60" height="30" as="geometry" />
        </mxCell>
        <mxCell id="bMZB9Vd6qo7QIXPBjNJl-1" value="&lt;h1&gt;Class 정의 :&lt;/h1&gt;&lt;p&gt;삼변측량 point *3&lt;/p&gt;&lt;p&gt;비콘 수신정보&lt;/p&gt;&lt;p&gt;&lt;span style=&quot;white-space: pre&quot;&gt; &lt;/span&gt;MAC, RSSI, Tx(?)&lt;br&gt;&lt;/p&gt;&lt;p&gt;&lt;span style=&quot;white-space: pre&quot;&gt; &lt;/span&gt;비콘 좌표정보&lt;br&gt;&lt;/p&gt;&lt;p&gt;시설 (목적지,장소 이름)&lt;/p&gt;&lt;p&gt;시설 입구 좌표&lt;/p&gt;" style="text;html=1;strokeColor=none;fillColor=none;spacing=5;spacingTop=-20;whiteSpace=wrap;overflow=hidden;rounded=0;" parent="WIyWlLk6GJQsqaUBKTNV-1" vertex="1">
          <mxGeometry x="850" y="-250" width="190" height="260" as="geometry" />
        </mxCell>
        <mxCell id="bMZB9Vd6qo7QIXPBjNJl-2" value="&lt;h1&gt;모듈&lt;/h1&gt;&lt;p&gt;수신된 비콘 id : 거리&lt;/p&gt;" style="text;html=1;strokeColor=none;fillColor=none;spacing=5;spacingTop=-20;whiteSpace=wrap;overflow=hidden;rounded=0;" parent="WIyWlLk6GJQsqaUBKTNV-1" vertex="1">
          <mxGeometry x="1026.25" y="-250" width="190" height="120" as="geometry" />
        </mxCell>
        <mxCell id="bMZB9Vd6qo7QIXPBjNJl-12" value="" style="group" parent="WIyWlLk6GJQsqaUBKTNV-1" vertex="1" connectable="0">
          <mxGeometry x="1026.25" y="-110" width="420" height="30" as="geometry" />
        </mxCell>
        <mxCell id="bMZB9Vd6qo7QIXPBjNJl-4" value="수신" style="rounded=0;whiteSpace=wrap;html=1;fillColor=#fff2cc;strokeColor=#d6b656;" parent="bMZB9Vd6qo7QIXPBjNJl-12" vertex="1">
          <mxGeometry width="90" height="30" as="geometry" />
        </mxCell>
        <mxCell id="bMZB9Vd6qo7QIXPBjNJl-6" value="거리계산" style="rounded=0;whiteSpace=wrap;html=1;fillColor=#fff2cc;strokeColor=#d6b656;" parent="bMZB9Vd6qo7QIXPBjNJl-12" vertex="1">
          <mxGeometry x="110" width="90" height="30" as="geometry" />
        </mxCell>
        <mxCell id="bMZB9Vd6qo7QIXPBjNJl-8" style="edgeStyle=orthogonalEdgeStyle;rounded=0;orthogonalLoop=1;jettySize=auto;html=1;exitX=1;exitY=0.5;exitDx=0;exitDy=0;entryX=0;entryY=0.5;entryDx=0;entryDy=0;" parent="bMZB9Vd6qo7QIXPBjNJl-12" source="bMZB9Vd6qo7QIXPBjNJl-4" target="bMZB9Vd6qo7QIXPBjNJl-6" edge="1">
          <mxGeometry relative="1" as="geometry" />
        </mxCell>
        <mxCell id="bMZB9Vd6qo7QIXPBjNJl-7" value="3가지" style="rounded=0;whiteSpace=wrap;html=1;fillColor=#fff2cc;strokeColor=#d6b656;" parent="bMZB9Vd6qo7QIXPBjNJl-12" vertex="1">
          <mxGeometry x="220" width="90" height="30" as="geometry" />
        </mxCell>
        <mxCell id="bMZB9Vd6qo7QIXPBjNJl-9" style="edgeStyle=orthogonalEdgeStyle;rounded=0;orthogonalLoop=1;jettySize=auto;html=1;exitX=1;exitY=0.5;exitDx=0;exitDy=0;entryX=0;entryY=0.5;entryDx=0;entryDy=0;" parent="bMZB9Vd6qo7QIXPBjNJl-12" source="bMZB9Vd6qo7QIXPBjNJl-6" target="bMZB9Vd6qo7QIXPBjNJl-7" edge="1">
          <mxGeometry relative="1" as="geometry" />
        </mxCell>
        <mxCell id="bMZB9Vd6qo7QIXPBjNJl-10" value="위치계산" style="rounded=0;whiteSpace=wrap;html=1;fillColor=#fff2cc;strokeColor=#d6b656;" parent="bMZB9Vd6qo7QIXPBjNJl-12" vertex="1">
          <mxGeometry x="330" width="90" height="30" as="geometry" />
        </mxCell>
        <mxCell id="bMZB9Vd6qo7QIXPBjNJl-11" style="edgeStyle=orthogonalEdgeStyle;rounded=0;orthogonalLoop=1;jettySize=auto;html=1;exitX=1;exitY=0.5;exitDx=0;exitDy=0;entryX=0;entryY=0.5;entryDx=0;entryDy=0;" parent="bMZB9Vd6qo7QIXPBjNJl-12" source="bMZB9Vd6qo7QIXPBjNJl-7" target="bMZB9Vd6qo7QIXPBjNJl-10" edge="1">
          <mxGeometry relative="1" as="geometry" />
        </mxCell>
        <mxCell id="bMZB9Vd6qo7QIXPBjNJl-15" value="경로계산" style="rounded=0;whiteSpace=wrap;html=1;fillColor=#ffe6cc;strokeColor=#d79b00;" parent="WIyWlLk6GJQsqaUBKTNV-1" vertex="1">
          <mxGeometry x="1356.25" y="-40" width="90" height="30" as="geometry" />
        </mxCell>
        <mxCell id="bMZB9Vd6qo7QIXPBjNJl-17" style="edgeStyle=orthogonalEdgeStyle;rounded=0;orthogonalLoop=1;jettySize=auto;html=1;exitX=0.5;exitY=1;exitDx=0;exitDy=0;entryX=0.5;entryY=0;entryDx=0;entryDy=0;" parent="WIyWlLk6GJQsqaUBKTNV-1" source="bMZB9Vd6qo7QIXPBjNJl-10" target="bMZB9Vd6qo7QIXPBjNJl-15" edge="1">
          <mxGeometry relative="1" as="geometry" />
        </mxCell>
        <mxCell id="bMZB9Vd6qo7QIXPBjNJl-20" value="&lt;b&gt;방학&lt;/b&gt;" style="text;html=1;strokeColor=none;fillColor=none;align=center;verticalAlign=middle;whiteSpace=wrap;rounded=0;" parent="WIyWlLk6GJQsqaUBKTNV-1" vertex="1">
          <mxGeometry x="1016.25" y="-150" width="60" height="30" as="geometry" />
        </mxCell>
        <mxCell id="bMZB9Vd6qo7QIXPBjNJl-22" value="&lt;b&gt;학기중&lt;/b&gt;" style="text;html=1;strokeColor=none;fillColor=none;align=center;verticalAlign=middle;whiteSpace=wrap;rounded=0;" parent="WIyWlLk6GJQsqaUBKTNV-1" vertex="1">
          <mxGeometry x="1026.25" y="-60" width="60" height="30" as="geometry" />
        </mxCell>
        <mxCell id="bMZB9Vd6qo7QIXPBjNJl-23" value="..." style="rounded=0;whiteSpace=wrap;html=1;fillColor=#ffe6cc;strokeColor=#d79b00;" parent="WIyWlLk6GJQsqaUBKTNV-1" vertex="1">
          <mxGeometry x="1246.25" y="-40" width="90" height="30" as="geometry" />
        </mxCell>
        <mxCell id="bMZB9Vd6qo7QIXPBjNJl-24" value="..." style="rounded=0;whiteSpace=wrap;html=1;fillColor=#ffe6cc;strokeColor=#d79b00;" parent="WIyWlLk6GJQsqaUBKTNV-1" vertex="1">
          <mxGeometry x="1136.25" y="-40" width="90" height="30" as="geometry" />
        </mxCell>
        <mxCell id="D1PhwU7BzraxwxTcJcQY-12" style="edgeStyle=orthogonalEdgeStyle;rounded=0;orthogonalLoop=1;jettySize=auto;html=1;exitX=0.5;exitY=1;exitDx=0;exitDy=0;" edge="1" parent="WIyWlLk6GJQsqaUBKTNV-1" source="D1PhwU7BzraxwxTcJcQY-0" target="D1PhwU7BzraxwxTcJcQY-6">
          <mxGeometry relative="1" as="geometry" />
        </mxCell>
        <mxCell id="D1PhwU7BzraxwxTcJcQY-0" value="비콘 신호가 감지시작" style="rounded=1;whiteSpace=wrap;html=1;fontSize=12;glass=0;strokeWidth=1;shadow=0;sketch=1;" vertex="1" parent="WIyWlLk6GJQsqaUBKTNV-1">
          <mxGeometry x="1335" y="330" width="150" height="60" as="geometry" />
        </mxCell>
        <mxCell id="D1PhwU7BzraxwxTcJcQY-1" value="N 초 타이머 시작" style="rounded=1;whiteSpace=wrap;html=1;fontSize=12;glass=0;strokeWidth=1;shadow=0;sketch=1;hachureGap=4;fontFamily=Architects Daughter;fontSource=https%3A%2F%2Ffonts.googleapis.com%2Fcss%3Ffamily%3DArchitects%2BDaughter;" vertex="1" parent="WIyWlLk6GJQsqaUBKTNV-1">
          <mxGeometry x="1106.2499999999998" y="230" width="150" height="60" as="geometry" />
        </mxCell>
        <mxCell id="D1PhwU7BzraxwxTcJcQY-2" style="edgeStyle=none;rounded=0;sketch=1;hachureGap=4;orthogonalLoop=1;jettySize=auto;html=1;fontFamily=Architects Daughter;fontSource=https%3A%2F%2Ffonts.googleapis.com%2Fcss%3Ffamily%3DArchitects%2BDaughter;fontSize=11;endArrow=open;startSize=14;endSize=14;sourcePerimeterSpacing=8;targetPerimeterSpacing=8;exitX=0;exitY=0.5;exitDx=0;exitDy=0;" edge="1" parent="WIyWlLk6GJQsqaUBKTNV-1" source="D1PhwU7BzraxwxTcJcQY-3">
          <mxGeometry relative="1" as="geometry">
            <mxPoint x="1103.75" y="250" as="targetPoint" />
            <Array as="points">
              <mxPoint x="993.75" y="1190" />
              <mxPoint x="1003.75" y="250" />
            </Array>
          </mxGeometry>
        </mxCell>
        <mxCell id="D1PhwU7BzraxwxTcJcQY-3" value="&lt;font style=&quot;font-size: 14px&quot;&gt;배열을 초기화 한다&lt;/font&gt;" style="rounded=0;whiteSpace=wrap;html=1;sketch=1;hachureGap=4;fontFamily=Architects Daughter;fontSource=https%3A%2F%2Ffonts.googleapis.com%2Fcss%3Ffamily%3DArchitects%2BDaughter;fontSize=20;" vertex="1" parent="WIyWlLk6GJQsqaUBKTNV-1">
          <mxGeometry x="1100" y="1150" width="160" height="80" as="geometry" />
        </mxCell>
        <mxCell id="D1PhwU7BzraxwxTcJcQY-25" value="" style="edgeStyle=orthogonalEdgeStyle;rounded=0;orthogonalLoop=1;jettySize=auto;html=1;" edge="1" parent="WIyWlLk6GJQsqaUBKTNV-1" source="D1PhwU7BzraxwxTcJcQY-4" target="D1PhwU7BzraxwxTcJcQY-24">
          <mxGeometry relative="1" as="geometry" />
        </mxCell>
        <mxCell id="D1PhwU7BzraxwxTcJcQY-28" value="" style="edgeStyle=orthogonalEdgeStyle;rounded=0;orthogonalLoop=1;jettySize=auto;html=1;" edge="1" parent="WIyWlLk6GJQsqaUBKTNV-1" source="D1PhwU7BzraxwxTcJcQY-4" target="D1PhwU7BzraxwxTcJcQY-27">
          <mxGeometry relative="1" as="geometry" />
        </mxCell>
        <mxCell id="D1PhwU7BzraxwxTcJcQY-4" value="배열 안의 값이 3개 이상인가?" style="rhombus;whiteSpace=wrap;html=1;shadow=0;fontFamily=Helvetica;fontSize=12;align=center;strokeWidth=1;spacing=6;spacingTop=-4;sketch=1;" vertex="1" parent="WIyWlLk6GJQsqaUBKTNV-1">
          <mxGeometry x="1623.75" y="730" width="201.26" height="90" as="geometry" />
        </mxCell>
        <mxCell id="D1PhwU7BzraxwxTcJcQY-13" style="edgeStyle=orthogonalEdgeStyle;rounded=0;orthogonalLoop=1;jettySize=auto;html=1;exitX=0.5;exitY=1;exitDx=0;exitDy=0;entryX=0.5;entryY=0;entryDx=0;entryDy=0;" edge="1" parent="WIyWlLk6GJQsqaUBKTNV-1" source="D1PhwU7BzraxwxTcJcQY-6" target="D1PhwU7BzraxwxTcJcQY-10">
          <mxGeometry relative="1" as="geometry" />
        </mxCell>
        <mxCell id="D1PhwU7BzraxwxTcJcQY-6" value="감지된 비콘의&lt;br&gt;식별id(MAC) , RSSI를&lt;br&gt;분리한다" style="rounded=1;whiteSpace=wrap;html=1;fontSize=12;glass=0;strokeWidth=1;shadow=0;sketch=1;" vertex="1" parent="WIyWlLk6GJQsqaUBKTNV-1">
          <mxGeometry x="1335" y="425" width="150" height="60" as="geometry" />
        </mxCell>
        <mxCell id="D1PhwU7BzraxwxTcJcQY-16" value="" style="edgeStyle=orthogonalEdgeStyle;rounded=0;orthogonalLoop=1;jettySize=auto;html=1;" edge="1" parent="WIyWlLk6GJQsqaUBKTNV-1" source="D1PhwU7BzraxwxTcJcQY-8" target="D1PhwU7BzraxwxTcJcQY-15">
          <mxGeometry relative="1" as="geometry" />
        </mxCell>
        <mxCell id="D1PhwU7BzraxwxTcJcQY-38" value="" style="edgeStyle=orthogonalEdgeStyle;rounded=0;orthogonalLoop=1;jettySize=auto;html=1;" edge="1" parent="WIyWlLk6GJQsqaUBKTNV-1" source="D1PhwU7BzraxwxTcJcQY-8" target="D1PhwU7BzraxwxTcJcQY-37">
          <mxGeometry relative="1" as="geometry" />
        </mxCell>
        <mxCell id="D1PhwU7BzraxwxTcJcQY-8" value="새로 수신된 신호가&lt;br&gt;현재 리스트에 담겨있는&lt;br&gt;비콘인가?" style="rhombus;whiteSpace=wrap;html=1;shadow=0;fontFamily=Helvetica;fontSize=12;align=center;strokeWidth=1;spacing=6;spacingTop=-4;sketch=1;" vertex="1" parent="WIyWlLk6GJQsqaUBKTNV-1">
          <mxGeometry x="1310.63" y="610" width="198.75" height="90" as="geometry" />
        </mxCell>
        <mxCell id="D1PhwU7BzraxwxTcJcQY-11" style="edgeStyle=orthogonalEdgeStyle;rounded=0;orthogonalLoop=1;jettySize=auto;html=1;exitX=0.5;exitY=1;exitDx=0;exitDy=0;entryX=0.5;entryY=0;entryDx=0;entryDy=0;" edge="1" parent="WIyWlLk6GJQsqaUBKTNV-1" source="D1PhwU7BzraxwxTcJcQY-9" target="D1PhwU7BzraxwxTcJcQY-0">
          <mxGeometry relative="1" as="geometry" />
        </mxCell>
        <mxCell id="D1PhwU7BzraxwxTcJcQY-9" value="Top3 리스트를&lt;br&gt;초기화한다.&lt;br&gt;[0, 0, 0]" style="rounded=1;whiteSpace=wrap;html=1;fontSize=12;glass=0;strokeWidth=1;shadow=0;sketch=1;" vertex="1" parent="WIyWlLk6GJQsqaUBKTNV-1">
          <mxGeometry x="1335" y="240" width="150" height="60" as="geometry" />
        </mxCell>
        <mxCell id="D1PhwU7BzraxwxTcJcQY-14" style="edgeStyle=orthogonalEdgeStyle;rounded=0;orthogonalLoop=1;jettySize=auto;html=1;exitX=0.5;exitY=1;exitDx=0;exitDy=0;entryX=0.5;entryY=0;entryDx=0;entryDy=0;" edge="1" parent="WIyWlLk6GJQsqaUBKTNV-1" source="D1PhwU7BzraxwxTcJcQY-10" target="D1PhwU7BzraxwxTcJcQY-8">
          <mxGeometry relative="1" as="geometry" />
        </mxCell>
        <mxCell id="D1PhwU7BzraxwxTcJcQY-10" value="현재 리스트에 담겨있는 id 들을 찾아낸다" style="ellipse;whiteSpace=wrap;html=1;" vertex="1" parent="WIyWlLk6GJQsqaUBKTNV-1">
          <mxGeometry x="1340.6200000000001" y="510" width="138.76" height="80" as="geometry" />
        </mxCell>
        <mxCell id="D1PhwU7BzraxwxTcJcQY-23" style="edgeStyle=orthogonalEdgeStyle;rounded=0;orthogonalLoop=1;jettySize=auto;html=1;exitX=0.5;exitY=1;exitDx=0;exitDy=0;entryX=0.5;entryY=0;entryDx=0;entryDy=0;" edge="1" parent="WIyWlLk6GJQsqaUBKTNV-1" source="D1PhwU7BzraxwxTcJcQY-15" target="D1PhwU7BzraxwxTcJcQY-4">
          <mxGeometry relative="1" as="geometry" />
        </mxCell>
        <mxCell id="D1PhwU7BzraxwxTcJcQY-15" value="리스트에 비콘 정보를 추가한다" style="whiteSpace=wrap;html=1;shadow=0;strokeWidth=1;spacing=6;spacingTop=-4;sketch=1;rounded=1;" vertex="1" parent="WIyWlLk6GJQsqaUBKTNV-1">
          <mxGeometry x="1633.77" y="612.5" width="191.24" height="85" as="geometry" />
        </mxCell>
        <mxCell id="D1PhwU7BzraxwxTcJcQY-17" value="Yes" style="text;strokeColor=none;fillColor=none;html=1;align=center;verticalAlign=middle;whiteSpace=wrap;rounded=0;sketch=1;hachureGap=4;fontFamily=Architects Daughter;fontSource=https%3A%2F%2Ffonts.googleapis.com%2Fcss%3Ffamily%3DArchitects%2BDaughter;fontSize=20;" vertex="1" parent="WIyWlLk6GJQsqaUBKTNV-1">
          <mxGeometry x="1335" y="710" width="60" height="30" as="geometry" />
        </mxCell>
        <mxCell id="D1PhwU7BzraxwxTcJcQY-18" value="No" style="text;strokeColor=none;fillColor=none;html=1;align=center;verticalAlign=middle;whiteSpace=wrap;rounded=0;sketch=1;hachureGap=4;fontFamily=Architects Daughter;fontSource=https%3A%2F%2Ffonts.googleapis.com%2Fcss%3Ffamily%3DArchitects%2BDaughter;fontSize=20;" vertex="1" parent="WIyWlLk6GJQsqaUBKTNV-1">
          <mxGeometry x="1547.51" y="620" width="60" height="30" as="geometry" />
        </mxCell>
        <mxCell id="D1PhwU7BzraxwxTcJcQY-30" value="" style="edgeStyle=orthogonalEdgeStyle;rounded=0;orthogonalLoop=1;jettySize=auto;html=1;" edge="1" parent="WIyWlLk6GJQsqaUBKTNV-1" source="D1PhwU7BzraxwxTcJcQY-24" target="D1PhwU7BzraxwxTcJcQY-29">
          <mxGeometry relative="1" as="geometry" />
        </mxCell>
        <mxCell id="D1PhwU7BzraxwxTcJcQY-24" value="큐를 비운다." style="whiteSpace=wrap;html=1;shadow=0;strokeWidth=1;spacing=6;spacingTop=-4;sketch=1;" vertex="1" parent="WIyWlLk6GJQsqaUBKTNV-1">
          <mxGeometry x="1664.38" y="860" width="120" height="60" as="geometry" />
        </mxCell>
        <mxCell id="D1PhwU7BzraxwxTcJcQY-26" value="Yes" style="text;strokeColor=none;fillColor=none;html=1;align=center;verticalAlign=middle;whiteSpace=wrap;rounded=0;sketch=1;hachureGap=4;fontFamily=Architects Daughter;fontSource=https%3A%2F%2Ffonts.googleapis.com%2Fcss%3Ffamily%3DArchitects%2BDaughter;fontSize=20;" vertex="1" parent="WIyWlLk6GJQsqaUBKTNV-1">
          <mxGeometry x="1654" y="820" width="60" height="30" as="geometry" />
        </mxCell>
        <mxCell id="D1PhwU7BzraxwxTcJcQY-27" value="&lt;span&gt;비콘의 id와 rssi를담은&lt;/span&gt;&lt;br&gt;&lt;span&gt;비콘 오브젝트를&lt;/span&gt;&lt;br&gt;&lt;span&gt;&amp;nbsp;리스트에 추가한다.&lt;/span&gt;" style="whiteSpace=wrap;html=1;shadow=0;strokeWidth=1;spacing=6;spacingTop=-4;sketch=1;" vertex="1" parent="WIyWlLk6GJQsqaUBKTNV-1">
          <mxGeometry x="1945.64" y="732.5" width="134.36" height="85" as="geometry" />
        </mxCell>
        <mxCell id="D1PhwU7BzraxwxTcJcQY-34" value="" style="edgeStyle=orthogonalEdgeStyle;rounded=0;orthogonalLoop=1;jettySize=auto;html=1;" edge="1" parent="WIyWlLk6GJQsqaUBKTNV-1" source="D1PhwU7BzraxwxTcJcQY-29" target="D1PhwU7BzraxwxTcJcQY-33">
          <mxGeometry relative="1" as="geometry" />
        </mxCell>
        <mxCell id="D1PhwU7BzraxwxTcJcQY-29" value="비콘의 id와 rssi를담은&lt;br&gt;비콘 오브젝트를&lt;br&gt;&amp;nbsp;리스트에 추가한다." style="whiteSpace=wrap;html=1;shadow=0;strokeWidth=1;spacing=6;spacingTop=-4;sketch=1;" vertex="1" parent="WIyWlLk6GJQsqaUBKTNV-1">
          <mxGeometry x="1631.5700000000002" y="960" width="185.62" height="100" as="geometry" />
        </mxCell>
        <mxCell id="D1PhwU7BzraxwxTcJcQY-31" value="No" style="text;strokeColor=none;fillColor=none;html=1;align=center;verticalAlign=middle;whiteSpace=wrap;rounded=0;sketch=1;hachureGap=4;fontFamily=Architects Daughter;fontSource=https%3A%2F%2Ffonts.googleapis.com%2Fcss%3Ffamily%3DArchitects%2BDaughter;fontSize=20;" vertex="1" parent="WIyWlLk6GJQsqaUBKTNV-1">
          <mxGeometry x="1850" y="730" width="60" height="30" as="geometry" />
        </mxCell>
        <mxCell id="D1PhwU7BzraxwxTcJcQY-33" value="삼변측량 시작" style="rounded=1;whiteSpace=wrap;html=1;shadow=0;strokeWidth=1;spacing=6;spacingTop=-4;sketch=1;" vertex="1" parent="WIyWlLk6GJQsqaUBKTNV-1">
          <mxGeometry x="1664.38" y="1090" width="120" height="60" as="geometry" />
        </mxCell>
        <mxCell id="D1PhwU7BzraxwxTcJcQY-37" value="그 비콘의 RSSI값이&lt;br&gt;다른가?" style="rhombus;whiteSpace=wrap;html=1;shadow=0;strokeWidth=1;spacing=6;spacingTop=-4;sketch=1;fillColor=#ffe6cc;strokeColor=#d79b00;" vertex="1" parent="WIyWlLk6GJQsqaUBKTNV-1">
          <mxGeometry x="1336.25" y="760" width="150" height="80" as="geometry" />
        </mxCell>
        <mxCell id="D1PhwU7BzraxwxTcJcQY-39" value="&lt;h1&gt;Heading&lt;/h1&gt;&lt;p&gt;비콘의 rssi가 큰지 -&amp;gt;&lt;br&gt;현재 있는것과 변동이 있는지&lt;br&gt;아오마어려워&lt;/p&gt;" style="text;html=1;strokeColor=none;fillColor=none;spacing=5;spacingTop=-20;whiteSpace=wrap;overflow=hidden;rounded=0;" vertex="1" parent="WIyWlLk6GJQsqaUBKTNV-1">
          <mxGeometry x="1150.62" y="775" width="190" height="120" as="geometry" />
        </mxCell>
      </root>
    </mxGraphModel>
  </diagram>
</mxfile>
